<?xml version="1.0" encoding="UTF-8"?>
<svg fill="none" viewBox="0 0 1172 249" xmlns="http://www.w3.org/2000/svg">
<g filter="url(#a)">
<path d="m88.274 155.4c0-5.6 0.9334-12.8 2.8-21.6 1.8667-8.8 4.3334-18.2 7.4-28.2-8.8 0.667-17.667 1.533-26.6 2.6-8.8 1.067-16.467 1.667-23 1.8-6 14-10.8 26.933-14.4 38.8-3.4666 11.733-6.2 23.2-8.2 34.4-5.0666-1.2-9.2666-3.333-12.6-6.4-3.3333-2.933-6.4-6.667-9.2-11.2 1.0667-2.133 2.2667-4.867 3.6-8.2 1.4667-3.333 3.1334-7.333 5-12 2-4.8 4.2-10.333 6.6-16.6 2.5334-6.4 5.4-13.8 8.6-22.2-4.4-1.867-7.3333-4.467-8.8-7.8 0.6667-0.5333 2.1334-1.0667 4.4-1.6 2.4-0.6667 5.3334-1.3333 8.8-2l2.6-6.4c2.8-7.2 5.0667-13.267 6.8-18.2 1.8667-4.9333 3.4-9.7333 4.6-14.4 1.3334-4.8 2.5334-10.067 3.6-15.8 1.2-5.7333 2.6-13 4.2-21.8 5.6 1.0667 10.667 3.5333 15.2 7.4 4.6667 3.8667 8.6667 8.5333 12 14-1.2 1.6-2.6666 4-4.4 7.2-1.7333 3.2-3.6666 7.0667-5.8 11.6-2 4.4-4.2 9.4-6.6 15-2.4 5.4667-5 11.267-7.8 17.4 8.2667-1.0667 16.6-2.0667 25-3 8.5334-0.9333 16.067-1.6 22.6-2 2.4-6.9333 4.867-13.667 7.4-20.2 2.667-6.6667 5.267-12.733 7.8-18.2 2.534-5.4667 4.934-10.267 7.2-14.4 2.4-4.1333 4.534-7.2 6.4-9.2 1.334 0.1333 3.067 0.6667 5.2 1.6 2.267 0.8 4.534 1.8 6.8 3 2.267 1.2 4.334 2.5333 6.2 4 1.867 1.3333 3.134 2.6 3.8 3.8-2.4 2.2667-4.8 5.2-7.2 8.8s-4.8 7.7333-7.2 12.4c-2.266 4.6667-4.533 9.7333-6.8 15.2-2.266 5.4667-4.4 11.133-6.4 17 2.667 2.4 4 5.4 4 9 0 2.533-0.533 4.867-1.6 7-1.2-0.267-2.4-0.4-3.6-0.4-1.2-0.133-2.466-0.267-3.8-0.4-2.266 7.2-4.333 14.333-6.2 21.4-1.866 7.067-3.466 13.8-4.8 20.2-1.2 6.4-2.2 12.267-3 17.6-0.666 5.333-1 9.8-1 13.4v3.2c0.134 0.8 0.267 1.467 0.4 2-2.933-0.133-5.066-0.667-6.4-1.6-1.333-0.8-2.3331-1.733-2.9998-2.8-0.6666-0.933-1.2666-1.933-1.8-3-0.5333-0.933-1.4-1.667-2.6-2.2-0.9333-0.4-1.8-1.333-2.6-2.8s-1.4666-3.133-2-5c-0.5333-1.867-0.9333-3.733-1.2-5.6-0.2666-1.867-0.4-3.4-0.4-4.6zm112.86-69.2c1.334 0 2.867 0.2667 4.6 0.8 1.867 0.4 3.534 1 5 1.8 1.467 0.6667 2.667 1.4 3.6 2.2 1.067 0.8 1.6 1.5333 1.6 2.2-2.666 5.6-5.133 11.267-7.4 17-2.266 5.6-4.2 11-5.8 16.2s-2.866 10.067-3.8 14.6c-0.8 4.533-1.2 8.467-1.2 11.8 0 3.733 0.4 6.867 1.2 9.4 0.8 2.4 2.134 4.133 4 5.2-1.6 1.067-3.666 1.933-6.2 2.6-2.533 0.667-4.8 1-6.8 1-7.2 0-10.8-4.933-10.8-14.8 0-7.6 2.534-18 7.6-31.2-2.666 6.133-5.733 11.933-9.2 17.4-3.466 5.333-7 10.067-10.6 14.2s-7.266 7.533-11 10.2c-3.6 2.533-6.933 4.067-10 4.6-4.933-0.267-8.933-2.6-12-7-3.066-4.533-4.6-10.267-4.6-17.2 0-7.467 1.6-15.333 4.8-23.6s7.267-15.933 12.2-23c5.067-7.0667 10.534-12.933 16.4-17.6 5.867-4.8 11.534-7.3333 17-7.6 1.334 0.4 2.8 1.2 4.4 2.4 1.734 1.2 3.334 2.6 4.8 4.2 1.6 1.6 2.934 3.2667 4 5 1.067 1.6 1.667 3 1.8 4.2-5.333 0.8-10.866 3.4-16.6 7.8-5.6 4.4-10.733 9.733-15.4 16-4.533 6.133-8.266 12.733-11.2 19.8-2.933 7.067-4.4 13.667-4.4 19.8 0 2.533 0.934 4.133 2.8 4.8 3.867-0.8 8.334-4.067 13.4-9.8 5.067-5.867 11.2-14.867 18.4-27 1.334-2.4 2.8-5.067 4.4-8 1.734-2.933 3.467-6 5.2-9.2 1.734-3.2 3.4-6.4 5-9.6 1.734-3.3333 3.334-6.5333 4.8-9.6zm33.783 82.2c6.133-4.133 12.133-9.4 18-15.8 5.867-6.533 11.2-13.533 16-21 4.8-7.6 8.867-15.467 12.2-23.6 3.333-8.1333 5.6-15.933 6.8-23.4 0-1.6-0.867-2.6667-2.6-3.2-1.867 0-4.467 1.6667-7.8 5-3.2 3.2-6.8 7.3333-10.8 12.4-3.867 5.067-7.867 10.733-12 17-4 6.267-7.667 12.533-11 18.8-3.333 6.133-6.2 11.933-8.6 17.4-2.267 5.333-3.533 9.667-3.8 13-1.333 0-2.467-1.333-3.4-4-0.267-0.667-0.733-1.333-1.4-2-0.667-0.8-1.733-1.733-3.2-2.8-0.667-0.533-1.333-1.133-2-1.8-0.667-0.8-1.133-1.467-1.4-2-0.533-1.067-0.8-2.8-0.8-5.2 0-7.867 1-16.733 3-26.6s4.6-19.933 7.8-30.2c3.333-10.267 7.2-20.333 11.6-30.2 4.4-10 8.933-19.133 13.6-27.4 4.8-8.2667 9.6-15.267 14.4-21 4.8-5.7333 9.333-9.5334 13.6-11.4 1.333 0.4 2.933 1.0667 4.8 2 1.867 0.93333 3.733 2 5.6 3.2s3.6 2.4 5.2 3.6c1.733 1.2 3 2.2667 3.8 3.2-14.667 11.867-27.4 27.133-38.2 45.8-10.667 18.533-19.4 40.467-26.2 65.8 3.733-6.933 7.933-13.6 12.6-20 4.667-6.5333 9.267-12.267 13.8-17.2 4.667-4.9333 9.067-8.8667 13.2-11.8 4.267-2.9333 7.8-4.4 10.6-4.4 2.133 0.5333 4.2 1.4667 6.2 2.8s3.8 3 5.4 5c1.6 1.8667 2.933 3.9333 4 6.2 1.067 2.1333 1.733 4.4 2 6.8-0.133 5.6-1.133 11.6-3 18-1.733 6.267-4.133 12.467-7.2 18.6-2.933 6.133-6.333 12-10.2 17.6-3.733 5.6-7.733 10.533-12 14.8-4.133 4.133-8.333 7.467-12.6 10-4.133 2.533-8.067 3.8-11.8 3.8-1.6 0-3.267-0.2-5-0.6-1.6-0.267-3.133-0.733-4.6-1.4-1.333-0.533-2.467-1.133-3.4-1.8-0.8-0.667-1.2-1.333-1.2-2zm68.136-14.8c0-1.2 0.067-2.667 0.2-4.4 0.267-1.867 0.667-4.267 1.2-7.2 0.533-3.067 1.2-6.733 2-11 0.933-4.267 2.067-9.4 3.4-15.4 0.267-1.333 0.867-3.467 1.8-6.4s2.133-6 3.6-9.2c1.6-3.3333 3.467-6.5333 5.6-9.6 2.267-3.0667 4.933-5.3333 8-6.8 2.267 0.5333 5.267 1.9333 9 4.2 3.733 2.1333 6.933 5.1333 9.6 9-3.067 3.467-5.667 6.933-7.8 10.4-2 3.467-3.867 7.067-5.6 10.8-1.6 3.733-3.133 7.6-4.6 11.6-1.333 4-2.867 8.2-4.6 12.6-1.467 3.733-2.8 7.6-4 11.6-1.2 3.867-1.867 7.267-2 10.2 0 2.4-0.067 4.067-0.2 5 0 1.067-0.333 1.6-1 1.6-0.533 0-1.6-0.333-3.2-1s-3.267-1.667-5-3c-1.6-1.467-3.067-3.267-4.4-5.4s-2-4.667-2-7.6zm38.2-86.8c0-0.8 0.2-2 0.6-3.6-0.667-0.6667-1.267-1.6667-1.8-3-0.4-1.3333-0.6-2.5333-0.6-3.6 0-1.2 0.133-2.8 0.4-4.8 0.4-2.1333 0.867-4.4 1.4-6.8s1.2-4.8667 2-7.4c0.8-2.6667 1.6-5.0667 2.4-7.2 1.6 0 3.533 0.4667 5.8 1.4 2.4 0.8 4.8 1.9333 7.2 3.4 2.4 1.3333 4.6 2.8667 6.6 4.6 2 1.6 3.533 3.1333 4.6 4.6-1.467 1.4667-3.4 3.5333-5.8 6.2-2.4 2.5333-4.733 5.2667-7 8.2-2.267 2.8-4.333 5.4667-6.2 8s-3.067 4.3333-3.6 5.4c-1.6-0.2667-3-0.9333-4.2-2-1.2-1.2-1.8-2.3333-1.8-3.4zm11.298 23.6c-0.666-0.8-1.266-2.4667-1.8-5-0.533-2.6667-0.8-4.9333-0.8-6.8 3.467 0.2667 6.8 0.5333 10 0.8 3.2 0.1333 6.134 0.2667 8.8 0.4 2-4 4.134-7.9333 6.4-11.8 2.4-4 4.667-7.6 6.8-10.8 2.267-3.3333 4.334-6.1333 6.2-8.4 2-2.2667 3.534-3.7333 4.6-4.4 1.334 0 3 0.2667 5 0.8 2.134 0.4 4.267 1 6.4 1.8 2.134 0.6667 4.067 1.4 5.8 2.2 1.734 0.8 2.934 1.6 3.6 2.4-4 5.0667-7.466 9.8-10.4 14.2-2.8 4.2667-5.866 9.2-9.2 14.8 2.667 0 5.334-0.0667 8-0.2 2.8-0.1333 5.6-0.3333 8.4-0.6 0.667 0.6667 1.2 1.5333 1.6 2.6 0.4 0.9333 0.6 1.9333 0.6 3-6.533 2.4-14.466 3.7333-23.8 4-3.333 6.4-6.333 12.8-9 19.2-2.533 6.267-4.733 12.333-6.6 18.2-1.733 5.867-3.133 11.4-4.2 16.6-0.933 5.2-1.4 9.867-1.4 14 0 5.867 2.2 9.133 6.6 9.8 4-0.533 7.8-1.533 11.4-3s6.8-3.333 9.6-5.6c0.8 1.2 1.267 2.2 1.4 3-0.8 1.2-2.2 2.6-4.2 4.2-1.866 1.6-3.933 3.133-6.2 4.6-2.266 1.6-4.466 2.933-6.6 4-2.133 1.067-3.733 1.667-4.8 1.8-3.333-0.133-6.666-0.867-10-2.2-3.333-1.333-6.4-3-9.2-5-2.666-2-4.866-4.2-6.6-6.6-1.733-2.533-2.6-5-2.6-7.4 0-3.2 0.4-7.2 1.2-12 0.934-4.933 2.2-10.267 3.8-16s3.467-11.733 5.6-18c2.134-6.267 4.467-12.467 7-18.6h-11.4zm119.51-3c-0.133 2.5333-0.6 5.2-1.4 8-0.667 2.6667-1.533 5.133-2.6 7.4-1.067 2.133-2.2 3.933-3.4 5.4s-2.333 2.2-3.4 2.2c-1.467-0.133-2.333-1.133-2.6-3 0-0.4 0.133-1 0.4-1.8 0.4-0.933 0.8-1.933 1.2-3s0.733-2.133 1-3.2c0.4-1.0667 0.6-2 0.6-2.8 0-1.8667-0.467-3.4-1.4-4.6-0.8-1.3333-1.933-2-3.4-2-5.333 0-9.4 3.3333-12.2 10-2.8 6.667-4.2 16.467-4.2 29.4 0 1.333 0.067 2.133 0.2 2.4 2.8-0.133 5.267-0.2 7.4-0.2 2.267-0.133 4.467-0.2 6.6-0.2 0.133 0.267 0.2 0.8 0.2 1.6 0 1.2-0.267 2.067-0.8 2.6-3.067 0.667-5.533 1.267-7.4 1.8-1.733 0.4-3.067 0.8-4 1.2s-1.533 0.867-1.8 1.4c-0.133 0.4-0.2 1-0.2 1.8v3.2c0.133 1.067 0.2 2.4 0.2 4 0 11.2-3.067 20.2-9.2 27-6 6.8-14.4 10.733-25.2 11.8-1.867-0.133-3.8-0.667-5.8-1.6s-3.933-2.133-5.8-3.6c-1.733-1.467-3.267-3.133-4.6-5-1.333-1.733-2.267-3.533-2.8-5.4 0-5.067 1.067-9.867 3.2-14.4 2.133-4.667 5-8.733 8.6-12.2 3.733-3.6 8.067-6.467 13-8.6 5.067-2.267 10.533-3.6 16.4-4 0-3.333-0.333-6.6-1-9.8s-1.4-6.267-2.2-9.2c-0.667-3.067-1.333-6-2-8.8-0.667-2.933-1-5.8-1-8.6 0-3.6 0.733-7.1333 2.2-10.6 1.467-3.6 3.4-6.8667 5.8-9.8 2.4-3.0667 5.2-5.6667 8.4-7.8s6.533-3.6 10-4.4c1.467 0.4 3.4 1.6 5.8 3.6 2.533 1.8667 5 4 7.4 6.4s4.533 4.8667 6.4 7.4c1.867 2.4 3 4.4 3.4 6zm-66 91.2c3.2-1.333 6.2-3.267 9-5.8 2.933-2.533 5.467-5.4 7.6-8.6s3.8-6.6 5-10.2c1.333-3.6 2-7.133 2-10.6-2.667 0.4-5.6 1.667-8.8 3.8-3.2 2-6.2 4.467-9 7.4-2.8 2.8-5.133 5.733-7 8.8s-2.8 5.733-2.8 8c0 2.933 1.333 5.333 4 7.2zm121.4-4.6c-7.6-0.8-13.667-4.133-18.2-10s-6.8-13.333-6.8-22.4c0-5.333 0.8-10.867 2.4-16.6s3.867-11.267 6.8-16.6c2.933-5.467 6.4-10.6 10.4-15.4s8.333-8.9333 13-12.4c7.333-5.4667 14.2-8.2 20.6-8.2 4.267 2.2667 8.467 7 12.6 14.2h1.8c0.533-0.1333 1.133-0.2 1.8-0.2 7.067 0 10.6 6.2667 10.6 18.8 0 8.4-1.4 16.4-4.2 24-2.667 7.467-6.467 14.267-11.4 20.4-4.8 6.133-10.6 11.333-17.4 15.6-6.667 4.133-14 7.067-22 8.8zm10.2-63c-2.267 3.067-4.4 6.4-6.4 10s-3.733 7.267-5.2 11c-1.467 3.6-2.6 7.133-3.4 10.6-0.8 3.333-1.2 6.333-1.2 9 0 3.2 0.533 6.267 1.6 9.2s2.267 4.6 3.6 5c6-1.333 11.467-3.8 16.4-7.4 5.067-3.733 9.4-8.333 13-13.8 3.733-5.467 6.6-11.667 8.6-18.6 2.133-6.933 3.2-14.333 3.2-22.2 0-3.467-0.2-6.2-0.6-8.2s-1.067-3.7333-2-5.2c-5.867 1.7333-11.133 4.5333-15.8 8.4-4.533 3.867-8.467 7.933-11.8 12.2zm78.881-41c3.467 1.0667 6.733 3.4667 9.8 7.2 3.067 3.6 5.333 7.6 6.8 12-1.467 3.6-3.733 7.9333-6.8 13-3.067 5.067-6.133 10.267-9.2 15.6-3.067 5.2-5.867 10.2-8.4 15-2.4 4.667-3.8 8.533-4.2 11.6 2.133-2.267 4.467-4.867 7-7.8 2.667-3.067 5.2-6.067 7.6-9 2.533-3.067 4.867-5.8 7-8.2 2.133-2.533 3.8-4.4 5-5.6 2.533-2.667 5.533-5.733 9-9.2 3.467-3.6 7.067-6.9333 10.8-10 3.867-3.2 7.733-5.8667 11.6-8 3.867-2.2667 7.4-3.4 10.6-3.4 3.467 0 6.333 1.2 8.6 3.6 2.4 2.2667 4.267 4.6667 5.6 7.2 0 0.2667-0.533 0.6667-1.6 1.2-0.933 0.4-2.333 1.6667-4.2 3.8-1.867 2.4-4 5.733-6.4 10-2.267 4.133-4.533 8.667-6.8 13.6-2.133 4.8-3.933 9.733-5.4 14.8s-2.2 9.667-2.2 13.8c0 3.333 0.4 5.467 1.2 6.4 0.933 0.933 2.2 1.4 3.8 1.4 1.467 0 3-0.333 4.6-1s2.867-1 3.8-1c0.533 0.267 0.933 0.867 1.2 1.8 0.4 0.8 0.6 1.533 0.6 2.2-1.067 0.933-2.333 1.867-3.8 2.8s-3 1.8-4.6 2.6-3.2 1.467-4.8 2c-1.467 0.533-2.8 0.8-4 0.8-3.867 0-7.067-0.6-9.6-1.8-2.4-1.067-4.333-2.533-5.8-4.4-1.333-1.867-2.267-4.067-2.8-6.6-0.533-2.667-0.8-5.467-0.8-8.4 0-1.6 0.133-3.4 0.4-5.4s0.8-4.333 1.6-7c0.8-2.8 1.933-6.067 3.4-9.8 1.467-3.867 3.333-8.467 5.6-13.8-0.267 0-2.067 0.933-5.4 2.8s-6.933 4.733-10.8 8.6c-6.267 6-11.933 11.933-17 17.8-4.933 5.867-10 12.4-15.2 19.6-2.933 4.133-5.533 7.6-7.8 10.4-2.133 2.933-4 4.867-5.6 5.8-2.8-1.6-4.867-3.867-6.2-6.8-1.333-2.8-2.333-5.733-3-8.8 0-2.533 0.333-5.733 1-9.6 0.8-3.867 1.8-8.133 3-12.8 1.333-4.8 2.933-9.8 4.8-15s3.933-10.4 6.2-15.6c5.067-11.733 9.667-20.933 13.8-27.6 4.267-6.6667 6.933-10.267 8-10.8zm244.26-10.8c0 7.3333-1.867 14.333-5.6 21-3.6 6.6667-8.533 12.533-14.8 17.6-6.133 4.933-13.4 8.867-21.8 11.8-8.267 2.933-17.067 4.4-26.4 4.4-3.333 0-6-0.4-8-1.2-1.867-0.933-4-2.667-6.4-5.2-6.667 14.533-12.133 27.933-16.4 40.2-4.133 12.133-7.4 23.933-9.8 35.4-5.067-1.2-9.2-3.333-12.4-6.4-3.2-2.933-6.133-6.667-8.8-11.2 1.333-2.533 2.933-5.867 4.8-10s4.133-9.2 6.8-15.2c2.667-6.133 5.733-13.4 9.2-21.8 3.6-8.533 7.8-18.467 12.6-29.8 2.133-5.2 4-9.7333 5.6-13.6s3-7.4667 4.2-10.8c1.2-3.4667 2.267-6.8667 3.2-10.2 1.067-3.3333 2.133-7 3.2-11-6.267 2-12.067 4.3333-17.4 7-5.2 2.6667-9.533 5.4667-13 8.4-1.2-0.8-2.467-2-3.8-3.6-1.2-1.6-2.333-3.3333-3.4-5.2-1.067-2-2-4-2.8-6s-1.267-3.8-1.4-5.4c3.867-2.6667 8.667-5.1333 14.4-7.4s11.867-4.2 18.4-5.8c6.533-1.7333 13.267-3.0667 20.2-4 7.067-0.9333 13.8-1.4 20.2-1.4 7.6 0 14.467 1 20.6 3 6.133 1.8667 11.333 4.5333 15.6 8s7.533 7.6 9.8 12.4 3.4 10.133 3.4 16zm-35.6-24c-5.067 0-10.267 0.4-15.6 1.2l2.4 3.6c-1.333 1.7333-3 4.3333-5 7.8s-4.2 7.6667-6.6 12.6c-2.4 4.8-5.067 10.2-8 16.2-2.8 6-5.8 12.333-9 19 10.4 0 19.867-0.9333 28.4-2.8 8.533-2 15.8-4.6667 21.8-8 6.133-3.4667 10.867-7.4667 14.2-12 3.467-4.5333 5.2-9.4 5.2-14.6 0-6.9333-2.333-12.467-7-16.6-4.667-4.2667-11.6-6.4-20.8-6.4zm83.038 51c1.333 0 2.866 0.2667 4.6 0.8 1.866 0.4 3.533 1 5 1.8 1.466 0.6667 2.666 1.4 3.6 2.2 1.066 0.8 1.6 1.5333 1.6 2.2-2.667 5.6-5.134 11.267-7.4 17-2.267 5.6-4.2 11-5.8 16.2s-2.867 10.067-3.8 14.6c-0.8 4.533-1.2 8.467-1.2 11.8 0 3.733 0.4 6.867 1.2 9.4 0.8 2.4 2.133 4.133 4 5.2-1.6 1.067-3.667 1.933-6.2 2.6-2.534 0.667-4.8 1-6.8 1-7.2 0-10.8-4.933-10.8-14.8 0-7.6 2.533-18 7.6-31.2-2.667 6.133-5.734 11.933-9.2 17.4-3.467 5.333-7 10.067-10.6 14.2s-7.267 7.533-11 10.2c-3.6 2.533-6.934 4.067-10 4.6-4.934-0.267-8.934-2.6-12-7-3.067-4.533-4.6-10.267-4.6-17.2 0-7.467 1.6-15.333 4.8-23.6s7.266-15.933 12.2-23c5.066-7.0667 10.533-12.933 16.4-17.6 5.866-4.8 11.533-7.3333 17-7.6 1.333 0.4 2.8 1.2 4.4 2.4 1.733 1.2 3.333 2.6 4.8 4.2 1.6 1.6 2.933 3.2667 4 5 1.066 1.6 1.666 3 1.8 4.2-5.334 0.8-10.867 3.4-16.6 7.8-5.6 4.4-10.734 9.733-15.4 16-4.534 6.133-8.267 12.733-11.2 19.8-2.934 7.067-4.4 13.667-4.4 19.8 0 2.533 0.933 4.133 2.8 4.8 3.866-0.8 8.333-4.067 13.4-9.8 5.066-5.867 11.2-14.867 18.4-27 1.333-2.4 2.8-5.067 4.4-8 1.733-2.933 3.466-6 5.2-9.2 1.733-3.2 3.4-6.4 5-9.6 1.733-3.3333 3.333-6.5333 4.8-9.6zm2.345 147c-1.867-0.533-2.933-2.533-3.2-6-0.533-1.733-0.933-3.8-1.2-6.2-0.133-2.4-0.2-5.133-0.2-8.2 0-2.8 0.467-6.667 1.4-11.6 0.933-4.8 2.2-10.267 3.8-16.4 1.733-6.133 3.8-12.733 6.2-19.8 2.4-7.2 5.067-14.467 8-21.8 3.6-9.2 6.733-17.133 9.4-23.8 2.667-6.8 4.867-12.667 6.6-17.6 1.867-4.9333 3.333-9 4.4-12.2 1.2-3.2 2.133-5.9333 2.8-8.2 0.533-1.6 1.333-3.5333 2.4-5.8s2.267-4.5333 3.6-6.8c1.467-2.4 2.933-4.6 4.4-6.6 1.467-2.1333 2.8-3.7333 4-4.8 4.667 0.6667 9.067 1.8667 13.2 3.6s6.667 3.4 7.6 5c-1.867 1.7333-4 4.4667-6.4 8.2-2.4 3.6-4.733 7.6-7 12-2.267 4.2667-4.333 8.6667-6.2 13.2-1.867 4.533-3.267 8.533-4.2 12 1.333-2.267 3.067-4.733 5.2-7.4s5.4-6.3333 9.8-11c4.933-5.0667 9.533-8.9333 13.8-11.6 4.4-2.8 8.2-4.2 11.397-4.2 5.07 0 9.2 1.4 12.4 4.2 3.34 2.8 5 6.4 5 10.8 0 9.6-1.6 19.133-4.8 28.6-3.2 9.333-7.8 17.8-13.797 25.4-2.267 2.933-4.933 5.733-8 8.4s-6.267 5.067-9.6 7.2c-3.333 2-6.6 3.6-9.8 4.8s-6.067 1.8-8.6 1.8c-2.4 0-4.533-0.467-6.4-1.4-1.733-1.067-2.933-2.333-3.6-3.8 5.2-3.067 10.267-7.333 15.2-12.8s9.467-11.733 13.6-18.8c4.267-7.2 7.933-14.933 11-23.2 3.2-8.267 5.6-16.667 7.2-25.2-5.067 2.6667-9.667 5.6-13.8 8.8-4 3.0667-8 7.1333-12 12.2-4.8 5.867-8.6 10.6-11.4 14.2s-5.133 6.667-7 9.2c-1.733 2.533-3.2 4.933-4.4 7.2-1.067 2.133-2.267 4.8-3.6 8-1.867 4.267-4.067 9.933-6.6 17-2.4 6.933-4.933 14.733-7.6 23.4-2.533 8.667-5.133 17.867-7.8 27.6-2.533 9.867-5 19.667-7.4 29.4-1.467-0.267-2.733-1.333-3.8-3.2-1.067-1.2-1.867-2.067-2.4-2.6-0.4-0.533-0.933-0.933-1.6-1.2zm177.81-149c-0.53 8.2667-2 15.4-4.4 21.4-2.4 5.867-5.86 11.067-10.4 15.6-4.4 4.4-9.8 8.4-16.2 12s-13.86 7.067-22.4 10.4c0 0.8-0.06 1.667-0.2 2.6v2.6c0 1.733 0.14 3.533 0.4 5.4 0.27 1.867 0.74 3.6 1.4 5.2 0.67 1.6 1.6 2.933 2.8 4 1.2 0.933 2.74 1.4 4.6 1.4 3.6 0 7.14-0.8 10.6-2.4 3.47-1.6 6.74-3.533 9.8-5.8 3.2-2.4 6.14-4.933 8.8-7.6 2.8-2.8 5.27-5.333 7.4-7.6 1.34 1.2 2.47 2.333 3.4 3.4-6 8-12.6 14.667-19.8 20-7.06 5.2-13.8 8.533-20.2 10-9.2-1.067-16.4-4.4-21.6-10-5.06-5.733-7.6-12.6-7.6-20.6 0-5.467 0.74-11 2.2-16.6 1.6-5.733 3.74-11.2 6.4-16.4 2.8-5.333 6-10.333 9.6-15 3.74-4.6667 7.67-8.7333 11.8-12.2 4.27-3.4667 8.6-6.2 13-8.2 4.54-2 9-3 13.4-3 6.14 0.8 11.87 4.6 17.2 11.4zm-13.8 6.6c-3.6 0.5333-7.33 2-11.2 4.4-3.86 2.4-7.53 5.6-11 9.6-3.33 4-6.4 8.667-9.2 14s-5 11.067-6.6 17.2c10.67-5.333 19.54-11.867 26.6-19.6 7.07-7.867 10.87-16.4 11.4-25.6zm10.26 72.2c0.67-3.867 1.8-8.933 3.4-15.2 1.74-6.4 3.74-13.133 6-20.2 2.27-7.2 4.67-14.4 7.2-21.6 2.54-7.2 5-13.667 7.4-19.4 1.74-4.1333 3.27-7.3333 4.6-9.6 1.34-2.4 2.8-4.4 4.4-6 1.87 0.2667 3.8 0.7333 5.8 1.4s3.94 1.4667 5.8 2.4c1.87 0.9333 3.54 1.9333 5 3 1.47 0.9333 2.6 1.8667 3.4 2.8-3.6 4.2667-6.8 9.1333-9.6 14.6-2.66 5.467-5.4 12.467-8.2 21 7.2-6.4 13.54-12.533 19-18.4 5.6-5.8667 10.8-12.4 15.6-19.6 0.8-0.6667 2.2-1 4.2-1 1.87 0 3.67 0.3333 5.4 1 1.74 0.5333 2.94 1.3333 3.6 2.4-2.4 6.4-3.6 12.733-3.6 19 0 5.867 0.87 10.267 2.6 13.2-0.13 0.8-1.06 2.333-2.8 4.6-1.6 2.267-3.4 4.4-5.4 6.4-3.6-1.867-6.8-4.4-9.6-7.6-2.8-3.333-4.86-6.933-6.2-10.8-6.26 4.4-11.6 8.733-16 13-4.4 4.133-8.2 8.8-11.4 14-3.06 5.067-5.73 10.933-8 17.6-2.13 6.667-4.2 14.6-6.2 23.8-1.2-0.133-2.66-0.6-4.4-1.4-1.6-0.667-3.26-1.533-5-2.6-1.6-1.067-3.06-2.2-4.4-3.4-1.33-1.2-2.2-2.333-2.6-3.4z" fill="currentColor"/>
</g>
<defs>
<filter id="a" x=".47424" y=".40002" width="1171.4" height="247.8" color-interpolation-filters="sRGB" filterUnits="userSpaceOnUse">
<feFlood flood-opacity="0" result="BackgroundImageFix"/>
<feColorMatrix in="SourceAlpha" result="hardAlpha" values="0 0 0 0 0 0 0 0 0 0 0 0 0 0 0 0 0 0 127 0"/>
<feOffset dy="4"/>
<feGaussianBlur stdDeviation="2"/>
<feComposite in2="hardAlpha" operator="out"/>
<feColorMatrix values="0 0 0 0 0 0 0 0 0 0 0 0 0 0 0 0 0 0 0.25 0"/>
<feBlend in2="BackgroundImageFix" result="effect1_dropShadow_13_18"/>
<feBlend in="SourceGraphic" in2="effect1_dropShadow_13_18" result="shape"/>
</filter>
</defs>
</svg>
